<svg xmlns="http://www.w3.org/2000/svg" width="256" height="256" viewBox="0 0 256 256"><path d="M59.7 167.4a31.9 31.9 0 0 0-7.7.8v.2c0 .2.3.6.8.9a12 12 0 0 0 2 1.1l2.6.9 2.8.9 2.3.6 1.5.2h2.1l2.5-.4 2.4-.9a6.1 6.1 0 0 0 1.7-1.4 25.6 25.6 0 0 0-6.4-2.2 29.6 29.6 0 0 0-6.6-.7z"/><path d="M128 2.7a126 126 0 1 0 126 126 126 126 0 0 0-126-126zm82.2 69.5v.3a8.8 8.8 0 0 1-.1 1.4 11.8 11.8 0 0 0-.3 2.1 17.7 17.7 0 0 0-.4 2c-.1.7-.2 1.1-.2 1.4a5.1 5.1 0 0 0-.9 1.8 14.6 14.6 0 0 0-.7 1.9c-.2.7-.3 1.3-.5 2a10.8 10.8 0 0 1-.8 1.9 30.1 30.1 0 0 1-1.6 3.1 21.1 21.1 0 0 0-1.6 3l-19.8 27.5c-.1.2-.1.4-.2.5l-.3.3-.3.3-.4.5-1.6 2.2c-.7.9-1.4 1.8-2.1 2.9l-2.1 3.2c-.8 1.1-1.4 2.2-2 3.2s-1 2-1.4 2.9a8.7 8.7 0 0 0-.5 2.3c0 .3-.2.6-.2.8s.2.4.2.7c-.2 0-.3.1-.3.4s.1.3.3.4v10a1.9 1.9 0 0 1-.3 1l-.3 1.2a6.7 6.7 0 0 0-.6 1.2c-.1.4-.5.8-.5 1.1v1.6c0 .1.2.2 0 .5s-.2.5-.4.7l-.7.8c-.2.3-.5.4-.5.5v.3c0 .1.7.3.8.5s.8.3.8.4v2.8a23.3 23.3 0 0 1-.6 3.5c-.2 1.1-.5 2.3-.7 3.4s-.5 2.3-.7 3.5a20.7 20.7 0 0 0-.3 3.5 42.2 42.2 0 0 0 .3 6.2 38.8 38.8 0 0 0 1 6.1 35.4 35.4 0 0 0 2.2 5.7 21.8 21.8 0 0 0 3.3 5.2 3.6 3.6 0 0 1-1.2.8l-1.7.7-1.7.5h-1.9l-1-.3-1.2-.2-.9-.3h-.8l-.7-.3a1 1 0 0 1-.6-.5c-.2-.1-.3-.4-.4-.7a26.1 26.1 0 0 0 .2-4l-.3-4.2c-.2-1.4-.4-2.8-.5-4.3l-.6-4-.2-.6a.8.8 0 0 0-.2-.6c.1-1.1.1-2.3.1-3.6s0-2.7-.1-4a25.7 25.7 0 0 0-.6-4 12.8 12.8 0 0 0-1.4-3.4 3.7 3.7 0 0 0-1.4 1.8 27.6 27.6 0 0 0-.8 2.7c-.2 1-.2 1.9-.4 2.9s-1 1.7-1 2.3v1.4a16.2 16.2 0 0 1 0 2.2v3.8c0 2.8-.2 5.6-.1 8.2a73.6 73.6 0 0 0 .6 8.1l.4.4.8.6a2.7 2.7 0 0 1 .8.7.9.9 0 0 1 .3.6c0 .2-.2.5-.8.8a7.5 7.5 0 0 1-1.8.8 10.4 10.4 0 0 1-2 .8l-1.3.5h-.1l-4.8-2.6a.6.6 0 0 1-.2-.5v-.6a27.9 27.9 0 0 1 0-2.9 14.6 14.6 0 0 0 .2-3c0-1.3-.2-2.6-.3-3.8l-.6-3.7-.6-3.7a23.8 23.8 0 0 1-.3-3.9c0-1.2.1-2.3.1-3.2a23.6 23.6 0 0 1 .4-2.8c.2-.9.3-1.8.5-2.8s.4-2 .7-3.2a2.3 2.3 0 0 0-.1-.7c0-.3-.1-.5-.1-.7l-1.9.2-1.8.5-1.9.6a13.9 13.9 0 0 1-1.9.6l-1.3.2h-2.1l-1-.2h-7a45.2 45.2 0 0 0-5.3-.2H121a3.5 3.5 0 0 0-2.3.9v5.1c0 1.7-.1 3.4-.1 5.1l-.3 5c-.1 1.7-.2 3.4-.2 5.2v2.6a7.5 7.5 0 0 1 0 1.5v1c0 .6.7 1.1 1.2 1.7l1.3 1.7a6.6 6.6 0 0 1 1.2 1.7 3.2 3.2 0 0 1 .6 1.8v.4a10.7 10.7 0 0 1-4 .4c.1.4 0 .7-.2.7h-2.7a9 9 0 0 1-2.3-.2 4.2 4.2 0 0 1-1.8-.8 2.2 2.2 0 0 1-.7-1.9 4.9 4.9 0 0 1 .1-1.2l.3-1.3a7.9 7.9 0 0 0 .3-1.3 6.8 6.8 0 0 0 .2-1.4 23.4 23.4 0 0 0-.3-3.8c-.2-1.2-.4-2.4-.7-3.6s-.5-2.6-.8-3.8a25.3 25.3 0 0 1-.7-3.9h-.4c-.2 0-.4.8-.5.9l-.4.7-.3.5a18.8 18.8 0 0 1-1.6 2.3l-1.4 2.2a25.6 25.6 0 0 0-1.1 2.4 8.4 8.4 0 0 0-.4 2.7 4.5 4.5 0 0 0 .3 1.6 10.7 10.7 0 0 0 .7 1.5 6.2 6.2 0 0 0 .8 1.2l.3.5a.9.9 0 0 1-.4.8l-1 .4-1.3.3H98l-1.1-.4a2.2 2.2 0 0 1-.7-.9 10.3 10.3 0 0 1-.5-1.6 9.8 9.8 0 0 1-.5-1.6 4.5 4.5 0 0 1-.3-1.6 2.8 2.8 0 0 1 .4-1.5l.9-1.6 1.1-1.6a10 10 0 0 0 .8-1.4l2.4-5.8c.8-2 1.6-3.9 2.5-5.9a4.3 4.3 0 0 1 .4-.7l.6-.7c.1-.3.3-.5.4-.8a1.9 1.9 0 0 0 .2-.8c0-.4-.2-.6-.4-.6H103l-8.9 2.4a3.2 3.2 0 0 1-1.3.5l-1.8.4a7.6 7.6 0 0 0-1.6.6 1.1 1.1 0 0 0-.6 1 2 2 0 0 0 .2.9l.7.7.8.5.7.6-.4.5-1.2-.9-1.4-.8-1.5-.6a3.9 3.9 0 0 0-1.5-.2 12.8 12.8 0 0 0-3.8.5l-3.9 1.1-4.1 1.1a14.7 14.7 0 0 1-4.2.5 17.7 17.7 0 0 1-3.4-.4 32.6 32.6 0 0 1-4.8-1.1 56 56 0 0 1-5.4-1.7 46.8 46.8 0 0 1-5-2.2A15.3 15.3 0 0 1 47 173a4 4 0 0 1-1.4-2.9 4.3 4.3 0 0 1 1.1-3.3 6.1 6.1 0 0 1 2.7-1.6 19.4 19.4 0 0 1 3.5-.2c1.2 0 2.3.4 3.3.4h3.9c.2 0 .6-.4 1.3-.3a19.5 19.5 0 0 1 2.3.2l2.5.3 2 .2a6 6 0 0 1 1.9.6l1.8.8 1.8.8a6.4 6.4 0 0 0 2 .3 7.5 7.5 0 0 0 3.9-1.1 25 25 0 0 0 4.1-2.5 40.8 40.8 0 0 0 3.9-3.1l3.2-2.7 1.9-1.2 1.8-1.1 1.7-1.2a8 8 0 0 0 1.5-1.7 33 33 0 0 0 2.6-4.5 39.9 39.9 0 0 1 2.7-4.4 5.3 5.3 0 0 1 1.3-1.3l1.5-1 1.6-.8 1.6-.9 3.6-2.7c1.2-.9 2.3-1.9 3.4-2.9l3.3-2.9 3.5-2.9a32.8 32.8 0 0 1 3.7-2.2l3.9-1.8 2.5-1.3 2.4-1.3 2.6-1.1a11.1 11.1 0 0 1 2.6-.7l22.2-3.3a9.5 9.5 0 0 0 3.5-1.1 21 21 0 0 0 3.3-2.2 40 40 0 0 0 3.2-2.8c1-1.1 1.9-2.2 2.9-3.2l2.6-3.2 2.3-2.8 7.6-8.9.4-.3.5-.5.5-.5.3-.3 2-3.2c0-.1.1-.1.3-.2l.3-.2.4-.3c.1-.1.2-.1.2-.2l.4-.4.4-.4 1.2-1.6a24.3 24.3 0 0 0 1.4-2l1.3-1.9 1-1.8a11.9 11.9 0 0 0 .8-2c.2-.6.5-1.4.7-2.1a18 18 0 0 1 .8-2.1c.2-.8 1-1.5 1-2.2v-6.1a5 5 0 0 0-1.1-3 10.7 10.7 0 0 0-2.6-2.6 12.4 12.4 0 0 0-3.4-1.8 8 8 0 0 0-3.1-.7 21.5 21.5 0 0 0-5.8.7 12.4 12.4 0 0 0-5.1 2.6l-1.4 1.4c-.5.6-1.1 1.2-1.6 1.9l-1.8 2-1.8 1.8a10.2 10.2 0 0 1-1.8 1.3 4.1 4.1 0 0 1-1.8.5 1.7 1.7 0 0 1-1.6-1.6v-.4a4.3 4.3 0 0 0 .1-.5 3.1 3.1 0 0 1 .2-.8c0-.2.1-.5.1-.7a2 2 0 0 1 .1-.5 4.7 4.7 0 0 0-.3-1.7 7.5 7.5 0 0 0-.6-1.3l-.6-1.2a5 5 0 0 1-.2-1.2c.4 0 .7-.1.8-.3a1.5 1.5 0 0 0 .5-.6 4.3 4.3 0 0 1 .4-.7 1.2 1.2 0 0 1 .8-.6c0-.1.2-.1.5-.1h2.3c.5 0 .8-.1.9-.4l.8-.6c.1-.1.1 0 .2 0h.1l.3.4c0 .2.1.4.2.4s.1-.3.4-.4l.6-.3 1.1-.7 1.3-.8 1.4-.8 1-.6.6-.4a12 12 0 0 1 2.1-1.2l1.7-.7 2-.2h6.3l1.5.5 1.5.3 1.6.3 1.5.5a17.7 17.7 0 0 1 4.5 3 16.7 16.7 0 0 1 3.2 4.2 19.6 19.6 0 0 1 1.7 5 24.7 24.7 0 0 1 .5 5.4v2.3z"/></svg>