<svg xmlns="http://www.w3.org/2000/svg" width="256" height="256" viewBox="0 0 256 256"><path d="M132.3 150.1c-.2 0-.4.2-.4.6h-.1c-.3 0-.4.2-.4.5s.1.6.4.6.4-.2.4-.6h.1c.4 0 .5-.2.5-.5s-.1-.6-.5-.6zm1.5-.8a2.4 2.4 0 0 0-.9.8h.3a2 2 0 0 0 1.1-.3 2.4 2.4 0 0 0 .9-.8h-.3a2 2 0 0 0-1.1.3zm3-2.5c-.3 0-.4.1-.4.5h-.1c-.3 0-.5.2-.5.6h-.1c-.3 0-.5.2-.5.6a.5.5 0 0 0 1 0h.1c.3 0 .4-.2.4-.6h.1c.3 0 .5-.2.5-.6s-.2-.5-.5-.5zm23-5.9a8.7 8.7 0 0 1-1.2 1.4 1.4 1.4 0 0 0 .8 1 2 2 0 0 0 1.1.2 2.3 2.3 0 0 0 1.4-.4 6.4 6.4 0 0 0 1-1.3 10 10 0 0 0 .8-1.4c.2-.5.4-1.2.5-1.2h-3.4c-.2 0-.5 1.1-1 1.7z"/><path d="M127.8 1.2a126 126 0 1 0 126 126 126 126 0 0 0-126-126zm94.5 74.7l-1.5.4h-3.7a30.8 30.8 0 0 0-5.2 1.2 15 15 0 0 0-3.6 1.6 8.3 8.3 0 0 0-2.4 2.1 11.9 11.9 0 0 0-1.8 2.9 40.4 40.4 0 0 0-1.5 3.9c-.4 1.5-1 3.1-1.6 5l-1.2 3.4-1.2 3.2c-.5 1-.9 2-1.5 3.1l-1.7 3.2a28 28 0 0 1-2.7 4c-.9 1.2-1.9 2.5-2.9 3.6l-3.1 3.6c-1 1.2-2 2.4-3 3.8a7.3 7.3 0 0 0-1.4 2.6 27.7 27.7 0 0 1-1 2.6 6.7 6.7 0 0 1-1.3 2.1 5.2 5.2 0 0 1-2.5 1.6 5.4 5.4 0 0 1-1.3.6l-2 .6-2 .7-1.4.4a3 3 0 0 1 .2 2 2 2 0 0 1-.9.9l-1.2.6a1.4 1.4 0 0 0-.8.9l-2.3 6.7a2.5 2.5 0 0 1-1 1.5 4.9 4.9 0 0 1-1.8.8 12.3 12.3 0 0 1-2 .2 10.3 10.3 0 0 1-1.8-.1h-.8c-.5 0-.9.2-1.2 0a.8.8 0 0 1-.4-.8c0-.2.1-.2.1-.4l.3-.2.2-.3a.6.6 0 0 0 .1-.4v-.2a21.1 21.1 0 0 0-3.4 1.6l-3.4 2.1-3.3 2.1a29 29 0 0 1-3.3 2l-.9.4-1.1.6a3.9 3.9 0 0 0-1 .8 1.3 1.3 0 0 0-.4 1v.6l1.8 1.6 1.9 1.7 2 1.6a11.3 11.3 0 0 0 2.1 1.2l1.8.7 1.9.5 1.9.7a5.6 5.6 0 0 1 1.7.9 5.8 5.8 0 0 1 1.3 1.4l1.1 1.5a17.1 17.1 0 0 1 1.1 1.4 6.4 6.4 0 0 0 1.5 1.3l1.7.6 2 .6a5.2 5.2 0 0 1 1.8 1 2.1 2.1 0 0 1 .7 1.7v.5l-5.5 1.1-1.1.4a2.1 2.1 0 0 1-1.2.3h-.5l-1.2-.6-1.7-1-1.7-1-1-.7-.2-.3-.3-.4-.3-.6-.3-.4-2.2-4.5-1.2-.4-1.8-.8-2.1-.9-2.1-1-1.8-.8-1.1-.6a18.2 18.2 0 0 1-2.7-1.5 13.8 13.8 0 0 1-2.6-2.2 10 10 0 0 1-2-2.6 8.9 8.9 0 0 1-1.1-3.1l-.5.2-.6.3-.9.7-1.7 1.1a11 11 0 0 1-2.1 1.4l-2.1 1.4-1.7 1.1-.9.5-6 3.5a22.2 22.2 0 0 0-4.5 3.4 17.3 17.3 0 0 0-3.6 4.4c-.8 1.7-.7 3.9-2.3 6.5v1.6a10.5 10.5 0 0 0 1.1 4.4 7.5 7.5 0 0 0 2.1 2.5 7.3 7.3 0 0 0 2.6 1.4l2.6 1a4.4 4.4 0 0 1 1.9 1 5.3 5.3 0 0 1 .8 2h-13.3l-.2-.4c-.1-.2-.2-.1-.3-.2l-.5-.2c-.2-.1-.4-.1-.6-.3a3.7 3.7 0 0 1-1.3-1.5 7.8 7.8 0 0 1-.4-2.2 9.3 9.3 0 0 1 .2-2.3c0-.7.2-1.4.2-2v-1.4a8.2 8.2 0 0 1 .3-1.8c.2-.8.3-1.7.6-2.7s.5-2 .7-3.1.6-2.1.8-3.1.5-1.9.7-2.7l.4-1.7a9.3 9.3 0 0 1 .7-2 7 7 0 0 1 1-1.9 15.4 15.4 0 0 0 4.4-2.5 19.9 19.9 0 0 0 3.2-3.3l2.9-3.4a16.3 16.3 0 0 1 3.4-3 4.2 4.2 0 0 1 1.5-.7l2-.8 2.3-1a10.3 10.3 0 0 0 2.1-1.1 7.5 7.5 0 0 0 1.6-1.3 2.5 2.5 0 0 0 .6-1.6v-1.3a1.7 1.7 0 0 0-.6-1.2l-.8-.3-1.2-.5-1.1-.5-.8-.4a9.4 9.4 0 0 1-2-1.2l-2.7-1.9-2.5-1.5a3.1 3.1 0 0 0-1.7-.6h-7.8c-6 0-11.8-.1-17.5.1s-11.6.2-17.6.2c-4.3 0-8.6-.1-12.7-.3a98.4 98.4 0 0 1-12.3-1.4 71.2 71.2 0 0 1-11.9-2.9 65.3 65.3 0 0 1-11.7-5l-1.4-.7-1.6-1a8 8 0 0 1-1.3-1.3 3 3 0 0 1-.5-1.5 5.9 5.9 0 0 1 2.1.4l2.4.9 2.2.9 1.4.7 4.7 1.6a41 41 0 0 0 5 1.4 30.6 30.6 0 0 0 5.1 1 27.4 27.4 0 0 0 4.8.4h26.3l2.5-.4 3.4-.5 3.6-.6 3.4-.6 2.6-.6 6.8-1.3 7.3-1.6q3.8-.9 7.2-2.1a39.7 39.7 0 0 0 6.6-2.8l3.8-1.7a25.4 25.4 0 0 1 3.8-1.6 22.3 22.3 0 0 1 3.9-1.3l4.1-1h4.6l1-.2 1.9-.3 3.3-.8 4-.9 4-.9a31.7 31.7 0 0 0 3.3-1.1c.9-.2 1.6-.7 1.9-.7h6.5c2.7 0 5.3.5 7.8.7s5.2.5 7.8.5a9.7 9.7 0 0 0 5-1.2 18.3 18.3 0 0 0 4.5-3.5 30.5 30.5 0 0 0 3.8-4.9c1.2-1.9 2.3-3.7 3.3-5.6s1.8-3.8 2.5-5.6l1.8-4.7c.4-1.2.7-2.4 1.1-3.5a28.1 28.1 0 0 1 1-3.1 12.3 12.3 0 0 1 1.2-2.6 6.1 6.1 0 0 1 1.7-1.9 7.6 7.6 0 0 1 2.6-1.6 12.7 12.7 0 0 1 3.8-.8h3c.8 1.6 1.8.9 3 1.3a36.8 36.8 0 0 1 3.5 1.5 21.6 21.6 0 0 1 3 1.8 2.9 2.9 0 0 1 1.2 2.2 2 2 0 0 1-.5 1.4 2.4 2.4 0 0 1-1.1.4z"/></svg>