<svg xmlns="http://www.w3.org/2000/svg" width="256" height="256" viewBox="0 0 256 256"><path d="M128.2 2.2a126 126 0 1 0 126 126 126 126 0 0 0-126-126zm108.9 114.9h-7.3c-3 0-6-.2-9-.4l-9.1-1-9-1a91 91 0 0 0-9.1-.4 125.4 125.4 0 0 0-16.1 1 70.2 70.2 0 0 0-15.7 3.6l-30.2 11c-.5.1-.9.7-1.2 1.5a12 12 0 0 0-.8 2.7c-.3 1-.5 1.9-.7 2.8a8.1 8.1 0 0 1-.6 2 3 3 0 0 0 1.4 1.3l2.4 1.2 2.9 1.1a14.3 14.3 0 0 1 2.7 1.5 9.1 9.1 0 0 1 2.1 1.8 4.1 4.1 0 0 1 .8 2.4 1.7 1.7 0 0 1-.5 1.2 3.8 3.8 0 0 1-1.2.9l-1.6.7-1.6.8a4.3 4.3 0 0 0-1.2 1.1 2.3 2.3 0 0 0-.5 1.5 3.9 3.9 0 0 0 .8 2.5 7 7 0 0 0 1.9 1.5l2.4 1.3a7.2 7.2 0 0 1 2.1 1.8 14.5 14.5 0 0 1 2 3.4 26 26 0 0 1 1.3 3.6 25.3 25.3 0 0 1 .7 3.8c.2 1.3.1 2.6.3 3.9l1.3 1.3v7.1h.8l1.1.2.9.2.6.3a5.4 5.4 0 0 0 .1.8c0 .2-.1.5-.1 1a5.6 5.6 0 0 1-.4 1.2l-.6.9a1 1 0 0 1-.9.3h-5.1c-.2 0-.5-.5-1-.8l-1.5-.8a10.9 10.9 0 0 0-1.5-.8c-.6-.3-.9-.9-1.2-.9h-6.1a5 5 0 0 1 .6-2.9 4.9 4.9 0 0 1 1.7-1.5 6.5 6.5 0 0 1 2.1-.7l2.1-.3a5.9 5.9 0 0 0 1.6-.6 1.6 1.6 0 0 0 .6-1.4v-.6l-.9-1.8a26.7 26.7 0 0 0-1.2-2.4l-1.5-2.4a10 10 0 0 0-1.6-1.8l-1.3-.8-1.8-.9-1.7-1.1a1.7 1.7 0 0 1-1-1.1c-.3-.8-.6-1.8-.9-2.9a30.1 30.1 0 0 0-1.1-3.2 7.4 7.4 0 0 0-1.7-2.5 4 4 0 0 0-2.9-1.1 23.3 23.3 0 0 0-5.9.8 28.3 28.3 0 0 0-5.7 2.3 27.6 27.6 0 0 0-5 3.4 18.2 18.2 0 0 0-3.8 4.5.5.5 0 0 1-.4.2h-.2a.3.3 0 0 1-.1-.2l-.2-.3c0-.2-.1-.4-.1-.6a2.1 2.1 0 0 1-.2-.6c0-.2-.1-.3-.1-.4h-.3a1.5 1.5 0 0 0-1.1.4l-.8 1.2-.9 1.3a2.7 2.7 0 0 1-.8 1 5.2 5.2 0 0 1-.7-1.6v-1.7a8.6 8.6 0 0 1 .4-2.8 22.9 22.9 0 0 1 .8-2.8 26 26 0 0 0 1-2.5 26.6 26.6 0 0 0 .3-2.8h-4.8c0-1.6.2-1.8.7-2.3a4.9 4.9 0 0 1 1.6-1.6 6.7 6.7 0 0 1 2.1-.9l2.1-.3 3 .2 2.9.5 2.8.4a14.2 14.2 0 0 0 2.9.2h2.3a2.4 2.4 0 0 0-1.7-1.4 10.1 10.1 0 0 0-2.5-.4l-2.6-.2c-.9-.1-1.6.1-2.2-.2l-3.9-2.2h-.3a10.7 10.7 0 0 0-3.1 0 15.8 15.8 0 0 1-3.1.1 7.3 7.3 0 0 1-3-.7l-2.6-1.3-2.6-1.4a5 5 0 0 0-2.9-.6v6h1.6l1-.4.9-.5a3.5 3.5 0 0 1 .9-.6l.6-.2v2.8l2-.7c0 .1.2.3.2.5a4.3 4.3 0 0 0 .1.5 5.2 5.2 0 0 1-1.3 3.8 22.6 22.6 0 0 1-3.2 2.9 20.9 20.9 0 0 0-4.6-1.2l-4.7-.7v-7.7c0 .1-1.1.2-1.8.5l-2 1-1.9 1.1c-.4.4-.9.8-.9 1.1v6.9a9.3 9.3 0 0 0 2.9-.3l1.9-.6 1.2-.6a2.1 2.1 0 0 1 1.2-.3h.3a2.4 2.4 0 0 1 .3.7c.2.4.3.8.5 1.3l.4 1.2a4.8 4.8 0 0 1-.3 2.9 8.1 8.1 0 0 1-1 1.8 6.5 6.5 0 0 1-1.6 1.3 3 3 0 0 1-1.8.6h-1l-3-.4-3.6-.7a10.2 10.2 0 0 1-3.2-1.3 2.5 2.5 0 0 1-1.4-2v-11.7l.9-.9 1.8-1.5 2.4-2.2a27.3 27.3 0 0 0 2.3-2.5 31 31 0 0 0 1.8-2.6 5.6 5.6 0 0 0 .8-2.6 3.9 3.9 0 0 0-1.2-2.8 15.5 15.5 0 0 0-2.8-2l-3.2-1.4-2.5-.9-1.3-9q-.3-1.2-.6-2.7a12.8 12.8 0 0 0-1.1-2.7 9.1 9.1 0 0 0-1.8-2.1 3.9 3.9 0 0 0-2.6-.9 12.5 12.5 0 0 0-3.6.5 13 13 0 0 0-3.2 1.5l-1.6 1-2.5 1.5-3 1.7-2.9 1.7-2.5 1.7c-.8.4-1.3 1.1-1.7 1.1h-1l-1.7-.2-2-.4a4.7 4.7 0 0 1-1.4-.8c-.5-.3-.3-.8-.3-1.3v-1.9c0-.6-.3-.9 0-.9h1.6c0-.1-.1-.2 0-.4a2.8 2.8 0 0 1 .1-.9c.1-.3.1-.5.2-.8a.8.8 0 0 0 0-.5 2 2 0 0 0-.8-.8l-.9-.5c-.2-.2-.5-.4-.6-.7a1.7 1.7 0 0 1-.3-1.2 5 5 0 0 1 .2-1.2 4.1 4.1 0 0 1 .7-1.1c.3-.4.2-.7.6-.9l.8-.3v.7a4.7 4.7 0 0 0 .6 1.5c.1.5.6.7 1.2.7a1.4 1.4 0 0 0 1-.4 5.8 5.8 0 0 0 1-1.2 7.6 7.6 0 0 0 .6-1.6c.2-.4.3.3.3-1.4H22.7c-.3 0-.5-.2-.9-.4l-1-.7a3.6 3.6 0 0 1-.9-.8 1.3 1.3 0 0 1-.4-1 4.7 4.7 0 0 1 1-3.2 7.8 7.8 0 0 1 2.6-1.7 11.9 11.9 0 0 1 3.2-1l2.8-.8 2.2-1 3.3-1.5 3.3-1.6a11 11 0 0 1 2.2-1h13.5a7.9 7.9 0 0 1 3.8.9 12.6 12.6 0 0 1 3.1 2.5 26 26 0 0 1 2.5 3.3l2.3 3.3a18.6 18.6 0 0 0 2.2 2.5 3.6 3.6 0 0 0 2.5 1 .8.8 0 0 0 .8-.4.9.9 0 0 1 .8-.4l1.5.3 1.5.7 1.5.7a3 3 0 0 0 1.6.3h4.1l4-.5 4.1-.5 4.1-.3a55.8 55.8 0 0 1 7.2.4 40.8 40.8 0 0 1 7.2 1.6c1.6.5 3.3 1.2 5 1.9l5 2.2a52.5 52.5 0 0 0 5.2 1.7 20 20 0 0 0 5.4.7h2.6l12.7-2.7c4.3-.8 8.5-1.6 12.7-2.2s8.5-1.2 12.8-1.6 8.6-.6 13-.6h3.3l5.5.2a34.4 34.4 0 0 1 5 .9l36.1 7.2h11.6c-.8 0-1.9 1-3.1 1.3a14 14 0 0 1-4.1.1z"/></svg>